<svg width="1258" height="219" viewBox="0 0 1258 219" fill="none" xmlns="http://www.w3.org/2000/svg">
<path d="M219.251 218.441C217.039 218.441 215.129 217.632 213.52 216.014C211.912 214.395 211.107 212.474 211.107 210.249V14.258C211.107 12.0331 211.912 10.1116 213.52 8.49354C215.129 6.87545 217.039 6.06641 219.251 6.06641H280.78C282.992 6.06641 284.902 6.87545 286.51 8.49354C288.119 10.1116 288.923 12.0331 288.923 14.258V210.249C288.923 212.474 288.119 214.395 286.51 216.014C284.902 217.632 282.992 218.441 280.78 218.441H219.251Z" fill="white"/>
<path d="M8.14351 215.407C5.93169 215.407 4.02149 214.598 2.41289 212.98C0.804298 211.362 0 209.441 0 207.216V11.2248C0 8.99991 0.804298 7.07843 2.41289 5.46034C4.02149 3.84225 5.93169 3.0332 8.14351 3.0332H65.7513C67.9631 3.0332 69.8733 3.84225 71.4819 5.46034C73.0905 7.07843 73.8948 8.99991 73.8948 11.2248V71.2964L107.977 9.70782C108.982 8.08973 110.423 6.57277 112.367 5.15695C114.277 3.74112 116.824 3.0332 120.041 3.0332H186.698C188.507 3.0332 190.049 3.70741 191.389 4.98839C192.696 6.30309 193.333 7.85376 193.333 9.70782C193.333 10.9214 193.031 12.0338 192.428 13.0451L138.138 104.669L197.556 205.396C198.159 206.205 198.46 207.317 198.46 208.733C198.46 210.553 197.79 212.138 196.517 213.452C195.21 214.767 193.668 215.407 191.825 215.407H123.058C119.036 215.407 116.053 214.464 114.177 212.508C112.267 210.587 111.094 209.239 110.691 208.429L73.8948 142.29V207.216C73.8948 209.441 73.0905 211.362 71.4819 212.98C69.8733 214.598 67.9631 215.407 65.7513 215.407H8.14351Z" fill="white"/>
<path d="M401.543 218.442C382.24 218.442 365.148 215.61 350.269 209.947C335.389 204.284 323.559 195.384 314.813 183.249C306.066 171.113 301.274 155.438 300.503 136.223C300.302 127.93 300.201 119.031 300.201 109.524C300.201 100.018 300.302 90.9164 300.503 82.2192C301.307 63.4089 306.166 47.9359 315.114 35.8002C324.062 23.6646 336.026 14.6639 351.006 8.79836C365.986 2.93279 382.843 0 401.543 0C414.411 0 426.811 1.48325 438.808 4.38233C450.772 7.31511 461.563 11.9334 471.215 18.2035C480.866 24.4736 488.541 32.5303 494.271 42.3063C500.002 52.116 502.951 63.9145 503.186 77.6683C503.186 79.4887 502.516 81.073 501.242 82.3877C499.935 83.7024 498.393 84.3429 496.55 84.3429H435.022C431.804 84.3429 429.425 83.7024 427.917 82.3877C426.409 81.073 425.068 78.8145 423.862 75.5446C421.65 69.0722 418.634 64.7236 414.814 62.4987C410.993 60.2738 406.469 59.1614 401.241 59.1614C394.606 59.1614 389.311 60.948 385.39 64.4876C381.469 68.0272 379.29 74.4658 378.888 83.7361C378.285 100.322 378.285 117.312 378.888 134.706C379.29 144.01 381.469 150.449 385.39 153.954C389.311 157.494 394.606 159.281 401.241 159.281C406.469 159.281 411.027 158.067 414.948 155.64C418.869 153.213 421.818 148.965 423.862 142.898C424.867 139.459 426.174 137.133 427.783 135.92C429.391 134.706 431.804 134.099 435.022 134.099H496.55C498.36 134.099 499.902 134.773 501.242 136.054C502.549 137.369 503.186 138.92 503.186 140.774C502.985 154.528 500.036 166.326 494.271 176.136C488.541 185.945 480.866 194.002 471.215 200.239C461.563 206.509 450.739 211.127 438.808 214.026C426.811 216.959 414.411 218.442 401.543 218.442Z" fill="white"/>
<path d="M681.37 205.396L621.953 104.669L676.243 13.0451C676.846 12.0338 677.147 10.9214 677.147 9.70782C677.147 7.88747 676.511 6.3368 675.204 5.02211C673.897 3.70741 672.322 3.0332 670.512 3.0332H603.856C600.639 3.0332 598.092 3.74112 596.181 5.15695C594.271 6.57277 592.797 8.08973 591.791 9.70782L561.63 64.2172L557.709 71.2964V11.2248C557.709 8.99991 556.905 7.07843 555.296 5.46034C553.688 3.84225 551.778 3.0332 549.566 3.0332H491.958C489.746 3.0332 487.836 3.84225 486.227 5.46034C486.026 5.69631 485.825 5.89857 485.624 6.13454C485.423 6.37051 485.255 6.60648 485.121 6.84246C484.954 7.07843 484.82 7.34811 484.686 7.58408C484.552 7.85376 484.451 8.08973 484.351 8.35941C494.74 15.5397 503.252 24.6414 509.585 35.4961C516.456 47.2947 520.075 61.4193 520.309 77.4653C520.309 83.0275 518.232 88.084 514.445 91.927C510.624 95.7363 505.598 97.8263 500.269 97.8263H483.814V120.614H500.269C505.598 120.614 510.624 122.704 514.411 126.514C518.232 130.39 520.309 135.447 520.309 140.773C520.075 157.021 516.456 171.146 509.585 182.945C503.252 193.799 494.74 202.901 484.351 210.081C484.451 210.351 484.552 210.621 484.686 210.857C484.954 211.362 485.256 211.868 485.624 212.306C485.825 212.542 486.026 212.744 486.227 212.98C487.836 214.598 489.746 215.407 491.958 215.407H549.566C551.778 215.407 553.688 214.598 555.296 212.98C556.905 211.362 557.709 209.441 557.709 207.216V142.29L561.63 149.335L594.506 208.429C594.908 209.239 596.081 210.621 597.991 212.542C599.901 214.464 602.85 215.407 606.872 215.407H675.639C677.449 215.407 679.024 214.767 680.331 213.452C681.638 212.138 682.275 210.553 682.275 208.733C682.275 207.317 681.973 206.205 681.37 205.396Z" fill="white"/>
<path d="M772.22 213.8C748.992 213.8 729.328 210.369 713.227 203.506C697.39 196.644 685.248 186.613 676.802 173.416C668.355 159.954 663.604 143.853 662.548 125.113C662.284 119.57 662.152 113.499 662.152 106.9C662.152 100.301 662.284 94.2305 662.548 88.6875C663.604 69.6831 668.619 53.582 677.593 40.3845C686.568 27.187 698.974 17.1568 714.811 10.2941C730.912 3.43136 750.048 0 772.22 0C794.392 0 813.396 3.43136 829.233 10.2941C845.335 17.1568 857.872 27.187 866.846 40.3845C875.821 53.582 880.836 69.6831 881.892 88.6875C882.419 94.2305 882.683 100.301 882.683 106.9C882.683 113.499 882.419 119.57 881.892 125.113C880.836 143.853 876.084 159.954 867.638 173.416C859.192 186.613 846.918 196.644 830.817 203.506C814.98 210.369 795.448 213.8 772.22 213.8ZM772.22 157.975C781.986 157.975 788.717 155.071 792.412 149.264C796.107 143.457 798.219 134.747 798.747 123.133C799.011 119.174 799.143 113.763 799.143 106.9C799.143 100.038 799.011 94.6264 798.747 90.6672C798.219 79.317 796.107 70.7391 792.412 64.9319C788.717 58.8611 781.986 55.8256 772.22 55.8256C762.718 55.8256 756.119 58.8611 752.424 64.9319C748.728 70.7391 746.485 79.317 745.693 90.6672C745.429 94.6264 745.297 100.038 745.297 106.9C745.297 113.763 745.429 119.174 745.693 123.133C746.485 134.747 748.728 143.457 752.424 149.264C756.119 155.071 762.718 157.975 772.22 157.975Z" fill="white"/>
<path d="M897.714 205.882C894.811 205.882 892.303 204.958 890.191 203.11C888.344 200.999 887.42 198.491 887.42 195.588V10.2941C887.42 7.39066 888.344 5.0151 890.191 3.16742C892.303 1.05581 894.811 0 897.714 0H955.123C958.027 0 960.402 1.05581 962.25 3.16742C964.361 5.0151 965.417 7.39066 965.417 10.2941V24.9434C973.336 17.2888 982.311 11.2179 992.34 6.73076C1002.63 2.24355 1013.85 0 1025.99 0H1043.81C1046.71 0 1049.22 1.05581 1051.33 3.16742C1053.44 5.0151 1054.5 7.39066 1054.5 10.2941V61.3686C1054.5 64.2718 1053.44 66.7798 1051.33 68.8912C1049.22 71.0026 1046.71 72.0586 1043.81 72.0586H999.467C989.965 72.0586 982.706 74.5659 977.691 79.5812C972.676 84.3323 970.169 91.459 970.169 100.961V195.588C970.169 198.491 969.113 200.999 967.001 203.11C965.153 204.958 962.778 205.882 959.874 205.882H897.714Z" fill="white"/>
<path d="M1120.05 213.8C1105.53 213.8 1092.47 211.029 1080.85 205.486C1069.5 199.943 1060.53 192.552 1053.93 183.314C1047.6 173.812 1044.43 163.253 1044.43 151.64C1044.43 132.635 1052.08 117.722 1067.39 106.9C1082.96 95.8142 1103.68 88.1598 1129.55 83.9364L1175.08 76.8097V74.0382C1175.08 65.8557 1173.76 59.7849 1171.12 55.8256C1168.75 51.6024 1163.6 49.4908 1155.68 49.4908C1150.14 49.4908 1145.65 50.5466 1142.22 52.6582C1138.79 54.7698 1135.62 57.8053 1132.72 61.7645C1130.08 64.668 1126.65 66.1197 1122.43 66.1197H1066.6C1063.7 66.1197 1061.45 65.3279 1059.87 63.7442C1058.29 62.1604 1057.63 60.0489 1057.89 57.4093C1058.15 52.6582 1060.13 47.1153 1063.83 40.7804C1067.52 34.1816 1073.2 27.8468 1080.85 21.776C1088.77 15.4411 1098.93 10.2941 1111.34 6.33484C1123.74 2.11161 1138.66 0 1156.08 0C1173.76 0 1188.94 1.97963 1201.61 5.93891C1214.28 9.89817 1224.71 15.4411 1232.89 22.5678C1241.07 29.6945 1247.14 38.4049 1251.1 48.699C1255.06 58.7291 1257.04 69.9472 1257.04 82.3527V199.547C1257.04 202.45 1255.98 204.958 1253.87 207.07C1252.02 208.917 1249.65 209.841 1246.75 209.841H1188.94C1186.3 209.841 1183.93 208.917 1181.81 207.07C1179.7 204.958 1178.65 202.45 1178.65 199.547V186.877C1175.22 192.156 1170.6 196.775 1164.79 200.735C1159.25 204.694 1152.65 207.861 1144.99 210.237C1137.6 212.612 1129.29 213.8 1120.05 213.8ZM1143.01 161.934C1149.61 161.934 1155.29 160.614 1160.04 157.975C1165.05 155.071 1169.01 150.716 1171.92 144.909C1174.82 139.102 1176.27 131.843 1176.27 123.133V120.362L1147.76 125.905C1138 127.752 1131.14 130.524 1127.18 134.219C1123.22 137.651 1121.24 141.477 1121.24 145.701C1121.24 148.868 1122.16 151.64 1124.01 154.015C1125.86 156.391 1128.36 158.371 1131.53 159.954C1134.96 161.274 1138.79 161.934 1143.01 161.934Z" fill="white"/>
</svg>
