<svg width="487" height="122" viewBox="0 0 487 122" fill="none" xmlns="http://www.w3.org/2000/svg">
<path d="M471 3.02344C478.155 3.02344 483.977 8.84482 483.977 16C483.977 23.1552 478.155 28.9766 471 28.9766C463.845 28.9766 458.023 23.1552 458.023 16C458.023 8.84482 463.845 3.02344 471 3.02344ZM471 9.97656C470.729 9.97656 470.468 10.0844 470.276 10.2764C470.084 10.4683 469.977 10.7286 469.977 11V14.9766H466C465.729 14.9766 465.468 15.0844 465.276 15.2764C465.084 15.4683 464.977 15.7286 464.977 16C464.977 16.2714 465.084 16.5317 465.276 16.7236C465.468 16.9156 465.729 17.0234 466 17.0234H469.977V21C469.977 21.2714 470.084 21.5317 470.276 21.7236C470.468 21.9156 470.729 22.0234 471 22.0234C471.271 22.0234 471.532 21.9156 471.724 21.7236C471.916 21.5317 472.023 21.2714 472.023 21V17.0234H476C476.271 17.0234 476.532 16.9156 476.724 16.7236C476.916 16.5317 477.023 16.2714 477.023 16C477.023 15.7286 476.916 15.4683 476.724 15.2764C476.532 15.0844 476.271 14.9766 476 14.9766H472.023V11C472.023 10.7286 471.916 10.4683 471.724 10.2764C471.532 10.0844 471.271 9.97656 471 9.97656Z" fill="#FFA52F" stroke="#FFA52F" stroke-width="0.046875"/>
<path d="M82.8487 121.771C82.0129 121.771 81.2911 121.466 80.6832 120.854C80.0754 120.243 79.7715 119.517 79.7715 118.676V44.6164C79.7715 43.7756 80.0754 43.0496 80.6832 42.4381C81.2911 41.8267 82.0129 41.521 82.8487 41.521H106.099C106.934 41.521 107.656 41.8267 108.264 42.4381C108.872 43.0496 109.176 43.7756 109.176 44.6164V118.676C109.176 119.517 108.872 120.243 108.264 120.854C107.656 121.466 106.934 121.771 106.099 121.771H82.8487Z" fill="white"/>
<path d="M3.07721 120.625C2.24142 120.625 1.51961 120.319 0.911765 119.708C0.303922 119.096 0 118.37 0 117.529V43.4699C0 42.6292 0.303922 41.9031 0.911765 41.2917C1.51961 40.6802 2.24142 40.3745 3.07721 40.3745H24.8456C25.6814 40.3745 26.4032 40.6802 27.011 41.2917C27.6189 41.9031 27.9228 42.6292 27.9228 43.4699V66.1693L40.8015 42.8967C41.1814 42.2852 41.7259 41.712 42.4604 41.177C43.1822 40.642 44.1446 40.3745 45.3603 40.3745H70.5478C71.2316 40.3745 71.8141 40.6293 72.3207 41.1133C72.8145 41.6101 73.0551 42.1961 73.0551 42.8967C73.0551 43.3552 72.9412 43.7756 72.7132 44.1577L52.1985 78.78L74.6507 116.842C74.8787 117.147 74.9926 117.568 74.9926 118.103C74.9926 118.791 74.7394 119.389 74.2582 119.886C73.7643 120.383 73.1818 120.625 72.4853 120.625H46.5C44.9804 120.625 43.8533 120.268 43.1442 119.529C42.4224 118.803 41.9792 118.294 41.8272 117.988L27.9228 92.9958V117.529C27.9228 118.37 27.6189 119.096 27.011 119.708C26.4032 120.319 25.6814 120.625 24.8456 120.625H3.07721Z" fill="white"/>
<path d="M151.732 121.772C144.437 121.772 137.979 120.702 132.357 118.562C126.734 116.422 122.264 113.059 118.959 108.473C115.654 103.887 113.843 97.9641 113.551 90.7034C113.475 87.5698 113.438 84.2069 113.438 80.6148C113.438 77.0226 113.475 73.5833 113.551 70.2969C113.855 63.189 115.692 57.3422 119.073 52.7564C122.454 48.1707 126.975 44.7696 132.635 42.5532C138.296 40.3367 144.665 39.2285 151.732 39.2285C156.594 39.2285 161.28 39.789 165.813 40.8845C170.334 41.9927 174.412 43.7378 178.059 46.1071C181.706 48.4764 184.606 51.5208 186.771 55.2149C188.937 58.9217 190.051 63.38 190.14 68.5772C190.14 69.2651 189.886 69.8638 189.405 70.3605C188.911 70.8573 188.329 71.0994 187.632 71.0994H164.382C163.167 71.0994 162.268 70.8573 161.698 70.3605C161.128 69.8638 160.621 69.0103 160.165 67.7747C159.33 65.329 158.19 63.6858 156.746 62.845C155.303 62.0043 153.593 61.584 151.618 61.584C149.11 61.584 147.109 62.2591 145.628 63.5966C144.146 64.9341 143.323 67.3671 143.171 70.8701C142.943 77.1372 142.943 83.5573 143.171 90.1301C143.323 93.6459 144.146 96.0789 145.628 97.4036C147.109 98.7411 149.11 99.4163 151.618 99.4163C153.593 99.4163 155.315 98.9577 156.797 98.0405C158.279 97.1234 159.393 95.5184 160.165 93.2255C160.545 91.9262 161.039 91.0473 161.647 90.5887C162.255 90.1301 163.167 89.9009 164.382 89.9009H187.632C188.316 89.9009 188.899 90.1556 189.405 90.6397C189.899 91.1365 190.14 91.7224 190.14 92.423C190.064 97.6202 188.949 102.079 186.771 105.785C184.606 109.492 181.706 112.537 178.059 114.893C174.412 117.262 170.321 119.008 165.813 120.103C161.28 121.211 156.594 121.772 151.732 121.772Z" fill="white"/>
<path d="M257.471 116.842L235.019 78.78L255.534 44.1577C255.761 43.7756 255.875 43.3552 255.875 42.8967C255.875 42.2088 255.635 41.6229 255.141 41.1261C254.647 40.6293 254.052 40.3745 253.368 40.3745H228.181C226.965 40.3745 226.002 40.642 225.281 41.177C224.559 41.712 224.002 42.2852 223.622 42.8967L212.225 63.4942L210.743 66.1693V43.4699C210.743 42.6292 210.439 41.9031 209.831 41.2917C209.223 40.6802 208.502 40.3745 207.666 40.3745H185.898C185.062 40.3745 184.34 40.6802 183.732 41.2917C183.656 41.3808 183.58 41.4573 183.504 41.5464C183.428 41.6356 183.365 41.7248 183.314 41.8139C183.251 41.9031 183.2 42.005 183.15 42.0942C183.099 42.1961 183.061 42.2852 183.023 42.3871C186.949 45.1004 190.165 48.5397 192.558 52.6413C195.154 57.0997 196.522 62.437 196.611 68.5003C196.611 70.6021 195.826 72.5129 194.395 73.965C192.951 75.4044 191.052 76.1942 189.038 76.1942H182.82V84.8052H189.038C191.052 84.8052 192.951 85.5949 194.382 87.0343C195.826 88.4992 196.611 90.4099 196.611 92.4226C196.522 98.5624 195.154 103.9 192.558 108.358C190.165 112.46 186.949 115.899 183.023 118.612C183.061 118.714 183.099 118.816 183.15 118.905C183.251 119.096 183.365 119.287 183.504 119.453C183.58 119.542 183.656 119.619 183.732 119.708C184.34 120.319 185.062 120.625 185.898 120.625H207.666C208.502 120.625 209.223 120.319 209.831 119.708C210.439 119.096 210.743 118.37 210.743 117.529V92.9958L212.225 95.6581L224.648 117.988C224.799 118.294 225.243 118.816 225.965 119.542C226.686 120.268 227.801 120.625 229.32 120.625H255.306C255.989 120.625 256.585 120.383 257.078 119.886C257.572 119.389 257.813 118.791 257.813 118.103C257.813 117.568 257.699 117.147 257.471 116.842Z" fill="white"/>
<path d="M291.8 120.018C283.023 120.018 275.593 118.721 269.509 116.128C263.524 113.535 258.936 109.744 255.745 104.757C252.553 99.6708 250.758 93.5866 250.359 86.5051C250.259 84.4106 250.209 82.1167 250.209 79.6231C250.209 77.1295 250.259 74.8356 250.359 72.7411C250.758 65.5598 252.653 59.4757 256.044 54.4887C259.435 49.5017 264.123 45.7116 270.107 43.1184C276.191 40.5251 283.422 39.2285 291.8 39.2285C300.179 39.2285 307.36 40.5251 313.344 43.1184C319.428 45.7116 324.166 49.5017 327.557 54.4887C330.948 59.4757 332.843 65.5598 333.242 72.7411C333.442 74.8356 333.541 77.1295 333.541 79.6231C333.541 82.1167 333.442 84.4106 333.242 86.5051C332.843 93.5866 331.048 99.6708 327.856 104.757C324.665 109.744 320.027 113.535 313.943 116.128C307.958 118.721 300.578 120.018 291.8 120.018ZM291.8 98.9227C295.491 98.9227 298.034 97.8257 299.431 95.6313C300.827 93.437 301.625 90.1456 301.824 85.7571C301.924 84.261 301.974 82.2162 301.974 79.6231C301.974 77.03 301.924 74.9852 301.824 73.4891C301.625 69.2002 300.827 65.9588 299.431 63.7645C298.034 61.4705 295.491 60.3235 291.8 60.3235C288.21 60.3235 285.716 61.4705 284.32 63.7645C282.924 65.9588 282.076 69.2002 281.777 73.4891C281.677 74.9852 281.627 77.03 281.627 79.6231C281.627 82.2162 281.677 84.261 281.777 85.7571C282.076 90.1456 282.924 93.437 284.32 95.6313C285.716 97.8257 288.21 98.9227 291.8 98.9227Z" fill="white"/>
<path d="M339.222 117.025C338.125 117.025 337.177 116.676 336.379 115.978C335.681 115.18 335.332 114.233 335.332 113.136V43.1184C335.332 42.0212 335.681 41.1236 336.379 40.4254C337.177 39.6275 338.125 39.2285 339.222 39.2285H360.915C362.012 39.2285 362.91 39.6275 363.608 40.4254C364.406 41.1236 364.805 42.0212 364.805 43.1184V48.6539C367.797 45.7615 371.189 43.4674 374.979 41.7719C378.868 40.0763 383.107 39.2285 387.695 39.2285H394.428C395.525 39.2285 396.473 39.6275 397.27 40.4254C398.068 41.1236 398.467 42.0212 398.467 43.1184V62.418C398.467 63.5151 398.068 64.4627 397.27 65.2606C396.473 66.0584 395.525 66.4575 394.428 66.4575H377.672C374.081 66.4575 371.338 67.4049 369.443 69.3C367.548 71.0954 366.6 73.7883 366.6 77.379V113.136C366.6 114.233 366.201 115.18 365.404 115.978C364.705 116.676 363.808 117.025 362.711 117.025H339.222Z" fill="white"/>
<path d="M423.236 120.018C417.75 120.018 412.813 118.97 408.424 116.876C404.135 114.781 400.744 111.989 398.251 108.498C395.857 104.907 394.66 100.917 394.66 96.529C394.66 89.3477 397.553 83.7123 403.338 79.6231C409.222 75.434 417.052 72.5417 426.826 70.9457L444.031 68.2528V67.2055C444.031 64.1136 443.533 61.8196 442.535 60.3235C441.638 58.7276 439.693 57.9297 436.7 57.9297C434.606 57.9297 432.91 58.3287 431.614 59.1266C430.317 59.9245 429.12 61.0715 428.023 62.5676C427.026 63.6647 425.729 64.2133 424.133 64.2133H403.038C401.941 64.2133 401.093 63.9141 400.495 63.3157C399.896 62.7172 399.647 61.9193 399.747 60.9219C399.847 59.1266 400.595 57.0321 401.991 54.6383C403.387 52.1448 405.532 49.7511 408.424 47.457C411.416 45.0633 415.256 43.1184 419.944 41.6223C424.632 40.0264 430.267 39.2285 436.85 39.2285C443.533 39.2285 449.268 39.9766 454.055 41.4727C458.843 42.9688 462.782 45.0633 465.874 47.7563C468.966 50.4492 471.26 53.7406 472.756 57.6305C474.252 61.4206 475 65.6596 475 70.3473V114.632C475 115.729 474.601 116.676 473.804 117.474C473.105 118.173 472.208 118.522 471.111 118.522H449.268C448.27 118.522 447.373 118.173 446.575 117.474C445.777 116.676 445.378 115.729 445.378 114.632V109.844C444.081 111.839 442.336 113.584 440.141 115.081C438.047 116.577 435.553 117.774 432.661 118.671C429.868 119.569 426.726 120.018 423.236 120.018ZM431.913 100.419C434.407 100.419 436.551 99.9202 438.346 98.9227C440.241 97.8257 441.737 96.18 442.834 93.9856C443.931 91.7913 444.48 89.0485 444.48 85.7571V84.7098L433.708 86.8044C430.018 87.5026 427.425 88.5499 425.929 89.9462C424.432 91.2429 423.684 92.6889 423.684 94.2848C423.684 95.4817 424.033 96.529 424.732 97.4266C425.43 98.3243 426.377 99.0723 427.574 99.6708C428.871 100.169 430.317 100.419 431.913 100.419Z" fill="white"/>
</svg>
