<svg width="185" height="32" viewBox="0 0 185 32" fill="none" xmlns="http://www.w3.org/2000/svg">
<path d="M32.1187 32C31.7947 32 31.5149 31.8814 31.2792 31.6444C31.0436 31.4074 30.9258 31.1259 30.9258 30.8V2.08886C30.9258 1.76293 31.0436 1.48145 31.2792 1.24441C31.5149 1.00737 31.7947 0.888855 32.1187 0.888855H41.1322C41.4562 0.888855 41.736 1.00737 41.9717 1.24441C42.2073 1.48145 42.3252 1.76293 42.3252 2.08886V30.8C42.3252 31.1259 42.2073 31.4074 41.9717 31.6444C41.736 31.8814 41.4562 32 41.1322 32H32.1187Z" fill="#232321"/>
<path d="M1.19296 31.5556C0.868945 31.5556 0.589115 31.437 0.353469 31.2C0.117823 30.963 0 30.6815 0 30.3556V1.64446C0 1.31853 0.117823 1.03705 0.353469 0.800014C0.589115 0.562977 0.868945 0.444458 1.19296 0.444458H9.63203C9.95605 0.444458 10.2359 0.562977 10.4715 0.800014C10.7072 1.03705 10.825 1.31853 10.825 1.64446V10.4445L15.8177 1.42224C15.965 1.1852 16.1761 0.962977 16.4609 0.755569C16.7407 0.548162 17.1138 0.444458 17.5851 0.444458H27.3497C27.6148 0.444458 27.8406 0.543223 28.037 0.730878C28.2284 0.92347 28.3217 1.15063 28.3217 1.42224C28.3217 1.60001 28.2775 1.76298 28.1892 1.91112L20.2361 15.3333L28.9403 30.0889C29.0286 30.2074 29.0728 30.3704 29.0728 30.5778C29.0728 30.8445 28.9746 31.0766 28.7881 31.2691C28.5966 31.4617 28.3708 31.5556 28.1008 31.5556H18.0269C17.4378 31.5556 17.0009 31.4173 16.726 31.1309C16.4461 30.8494 16.2743 30.6519 16.2154 30.5333L10.825 20.8445V30.3556C10.825 30.6815 10.7072 30.963 10.4715 31.2C10.2359 31.437 9.95605 31.5556 9.63203 31.5556H1.19296Z" fill="#232321"/>
<path d="M58.8223 32C55.9945 32 53.4908 31.5852 51.311 30.7556C49.1313 29.9259 47.3983 28.6222 46.117 26.8444C44.8357 25.0667 44.1337 22.7704 44.0207 19.9556C43.9913 18.7407 43.9766 17.437 43.9766 16.0444C43.9766 14.6519 43.9913 13.3185 44.0207 12.0444C44.1386 9.28889 44.8504 7.02222 46.1612 5.24444C47.472 3.46667 49.2246 2.14815 51.419 1.28889C53.6135 0.42963 56.0829 0 58.8223 0C60.7074 0 62.5239 0.217284 64.2814 0.641975C66.034 1.0716 67.6148 1.74815 69.0287 2.66667C70.4426 3.58519 71.5668 4.76543 72.4063 6.19753C73.2458 7.63457 73.6778 9.36296 73.7121 11.3778C73.7121 11.6444 73.614 11.8765 73.4274 12.0691C73.2359 12.2617 73.0101 12.3556 72.7401 12.3556H63.7266C63.2554 12.3556 62.9068 12.2617 62.6859 12.0691C62.465 11.8765 62.2686 11.5457 62.0919 11.0667C61.7678 10.1185 61.326 9.48148 60.7663 9.15556C60.2067 8.82963 59.5439 8.66667 58.7781 8.66667C57.806 8.66667 57.0304 8.92839 56.456 9.44691C55.8816 9.96543 55.5625 10.9086 55.5036 12.2667C55.4152 14.6963 55.4152 17.1852 55.5036 19.7333C55.5625 21.0963 55.8816 22.0395 56.456 22.5531C57.0304 23.0716 57.806 23.3333 58.7781 23.3333C59.5439 23.3333 60.2116 23.1556 60.786 22.8C61.3604 22.4444 61.7924 21.8222 62.0919 20.9333C62.2391 20.4296 62.4306 20.0889 62.6662 19.9111C62.9019 19.7333 63.2554 19.6444 63.7266 19.6444H72.7401C73.0052 19.6444 73.231 19.7432 73.4274 19.9309C73.6189 20.1235 73.7121 20.3506 73.7121 20.6222C73.6827 22.637 73.2507 24.3654 72.4063 25.8025C71.5668 27.2395 70.4426 28.4198 69.0287 29.3333C67.6148 30.2519 66.0291 30.9284 64.2814 31.3531C62.5239 31.7827 60.7074 32 58.8223 32Z" fill="#232321"/>
<path d="M99.8153 30.0889L91.1111 15.3333L99.0642 1.91112C99.1525 1.76298 99.1967 1.60001 99.1967 1.42224C99.1967 1.15557 99.1034 0.928409 98.912 0.735816C98.7205 0.543223 98.4898 0.444458 98.2247 0.444458H88.4601C87.9888 0.444458 87.6157 0.548162 87.3359 0.755569C87.056 0.962977 86.84 1.1852 86.6927 1.42224L82.2744 9.40742L81.7 10.4445V1.64446C81.7 1.31853 81.5822 1.03705 81.3465 0.800014C81.1109 0.562977 80.831 0.444458 80.507 0.444458H72.068C71.7439 0.444458 71.4641 0.562977 71.2285 0.800014C71.199 0.834581 71.1696 0.864211 71.1401 0.898779C71.1107 0.933347 71.0861 0.967915 71.0665 1.00248C71.0419 1.03705 71.0223 1.07656 71.0026 1.11112C70.983 1.15063 70.9683 1.1852 70.9536 1.2247C72.4754 2.27656 73.7224 3.60989 74.6502 5.20001C75.6567 6.92841 76.1869 8.99754 76.2212 11.3482C76.2212 12.163 75.9168 12.9037 75.3621 13.4667C74.8024 14.0247 74.066 14.3309 73.2855 14.3309H70.875V17.6691H73.2855C74.066 17.6691 74.8024 17.9753 75.3572 18.5333C75.9168 19.1012 76.2212 19.842 76.2212 20.6222C76.1869 23.0025 75.6567 25.0716 74.6502 26.8C73.7224 28.3901 72.4754 29.7235 70.9536 30.7753C70.9683 30.8148 70.983 30.8543 71.0026 30.8889C71.0419 30.963 71.0861 31.037 71.1401 31.1012C71.1696 31.1358 71.199 31.1654 71.2285 31.2C71.4641 31.437 71.7439 31.5556 72.068 31.5556H80.507C80.831 31.5556 81.1109 31.437 81.3465 31.2C81.5822 30.963 81.7 30.6815 81.7 30.3556V20.8445L82.2744 21.8766L87.0904 30.5333C87.1493 30.6519 87.3211 30.8543 87.601 31.1358C87.8808 31.4173 88.3128 31.5556 88.9019 31.5556H98.9758C99.2409 31.5556 99.4716 31.4617 99.6631 31.2691C99.8546 31.0766 99.9478 30.8445 99.9478 30.5778C99.9478 30.3704 99.9037 30.2074 99.8153 30.0889Z" fill="#232321"/>
<path d="M113.124 31.32C109.721 31.32 106.841 30.8173 104.482 29.812C102.162 28.8067 100.383 27.3373 99.146 25.404C97.9087 23.432 97.2127 21.0733 97.058 18.328C97.0193 17.516 97 16.6267 97 15.66C97 14.6933 97.0193 13.804 97.058 12.992C97.2127 10.208 97.9473 7.84933 99.262 5.916C100.577 3.98267 102.394 2.51333 104.714 1.508C107.073 0.502667 109.876 0 113.124 0C116.372 0 119.156 0.502667 121.476 1.508C123.835 2.51333 125.671 3.98267 126.986 5.916C128.301 7.84933 129.035 10.208 129.19 12.992C129.267 13.804 129.306 14.6933 129.306 15.66C129.306 16.6267 129.267 17.516 129.19 18.328C129.035 21.0733 128.339 23.432 127.102 25.404C125.865 27.3373 124.067 28.8067 121.708 29.812C119.388 30.8173 116.527 31.32 113.124 31.32ZM113.124 23.142C114.555 23.142 115.541 22.7167 116.082 21.866C116.623 21.0153 116.933 19.7393 117.01 18.038C117.049 17.458 117.068 16.6653 117.068 15.66C117.068 14.6547 117.049 13.862 117.01 13.282C116.933 11.6193 116.623 10.3627 116.082 9.512C115.541 8.62267 114.555 8.178 113.124 8.178C111.732 8.178 110.765 8.62267 110.224 9.512C109.683 10.3627 109.354 11.6193 109.238 13.282C109.199 13.862 109.18 14.6547 109.18 15.66C109.18 16.6653 109.199 17.458 109.238 18.038C109.354 19.7393 109.683 21.0153 110.224 21.866C110.765 22.7167 111.732 23.142 113.124 23.142Z" fill="#232321"/>
<path d="M131.508 30.16C131.083 30.16 130.715 30.0247 130.406 29.754C130.135 29.4447 130 29.0773 130 28.652V1.508C130 1.08267 130.135 0.734672 130.406 0.464002C130.715 0.154667 131.083 0 131.508 0H139.918C140.343 0 140.691 0.154667 140.962 0.464002C141.271 0.734672 141.426 1.08267 141.426 1.508V3.654C142.586 2.53267 143.901 1.64333 145.37 0.986002C146.878 0.328662 148.521 0 150.3 0H152.91C153.335 0 153.703 0.154667 154.012 0.464002C154.321 0.734672 154.476 1.08267 154.476 1.508V8.99C154.476 9.4153 154.321 9.7827 154.012 10.092C153.703 10.4013 153.335 10.556 152.91 10.556H146.414C145.022 10.556 143.959 10.9233 143.224 11.658C142.489 12.354 142.122 13.398 142.122 14.79V28.652C142.122 29.0773 141.967 29.4447 141.658 29.754C141.387 30.0247 141.039 30.16 140.614 30.16H131.508Z" fill="#232321"/>
<path d="M164.078 31.32C161.951 31.32 160.037 30.914 158.336 30.102C156.673 29.29 155.359 28.2073 154.392 26.854C153.464 25.462 153 23.9153 153 22.214C153 19.43 154.121 17.2453 156.364 15.66C158.645 14.036 161.681 12.9147 165.47 12.296L172.14 11.252V10.846C172.14 9.64733 171.947 8.758 171.56 8.178C171.212 7.55933 170.458 7.25 169.298 7.25C168.486 7.25 167.829 7.40467 167.326 7.714C166.823 8.02333 166.359 8.468 165.934 9.048C165.547 9.47333 165.045 9.686 164.426 9.686H156.248C155.823 9.686 155.494 9.57 155.262 9.338C155.03 9.106 154.933 8.79667 154.972 8.41C155.011 7.714 155.301 6.902 155.842 5.974C156.383 5.00733 157.215 4.07933 158.336 3.19C159.496 2.262 160.985 1.508 162.802 0.928002C164.619 0.309334 166.804 0 169.356 0C171.947 0 174.17 0.29 176.026 0.870002C177.882 1.45 179.409 2.262 180.608 3.306C181.807 4.35 182.696 5.626 183.276 7.134C183.856 8.60333 184.146 10.2467 184.146 12.064V29.232C184.146 29.6573 183.991 30.0247 183.682 30.334C183.411 30.6047 183.063 30.74 182.638 30.74H174.17C173.783 30.74 173.435 30.6047 173.126 30.334C172.817 30.0247 172.662 29.6573 172.662 29.232V27.376C172.159 28.1493 171.483 28.826 170.632 29.406C169.82 29.986 168.853 30.45 167.732 30.798C166.649 31.146 165.431 31.32 164.078 31.32ZM167.442 23.722C168.409 23.722 169.24 23.5287 169.936 23.142C170.671 22.7167 171.251 22.0787 171.676 21.228C172.101 20.3773 172.314 19.314 172.314 18.038V17.632L168.138 18.444C166.707 18.7147 165.702 19.1207 165.122 19.662C164.542 20.1647 164.252 20.7253 164.252 21.344C164.252 21.808 164.387 22.214 164.658 22.562C164.929 22.91 165.296 23.2 165.76 23.432C166.263 23.6253 166.823 23.722 167.442 23.722Z" fill="#232321"/>
</svg>
